<?xml version="1.0" encoding="UTF-8"?>
<svg id="Ebene_1" data-name="Ebene 1" xmlns="http://www.w3.org/2000/svg" version="1.1" viewBox="0 0 158.67 115.26">
  <defs>
    <style>
      .cls-1 {
        fill: #010101;
      }

      .cls-1, .cls-2 {
        stroke-width: 0px;
      }

      .cls-2 {
        fill: #2d845f;
      }
    </style>
  </defs>
  <path class="cls-1" d="M19.13,53.98c-.59-.05-1.29-.07-2.08-.05-.92.02-1.86.09-2.83.23-.97.14-1.8.31-2.47.53.12,1.77.19,3.42.22,4.96.04,2.1-.03,4.27-.2,6.51h-.09c-.27.04-.54.08-.82.15-.28.07-.57.1-.86.1l-1.69-.15c-.22-1.03-.39-1.98-.49-2.85-.1-.87-.2-1.95-.28-3.25l-.06-1.06c-.09-1.65-.22-3.11-.39-4.38-.62-.2-1.32-.29-2.09-.27L0,54.62c-.01.95,0,2.6.04,4.96.07,4.16.26,8.91.56,14.25.3,5.34.58,9.33.83,11.99l1.42-.11c.18,0,.53.02,1.06.07l.4.04c.71.05,1.3.07,1.77.06.97-.02,1.8-.22,2.47-.62.13-.92.18-2.26.15-4.03l-.06-1.15-.02-1.15c-.04-.65-.07-1.64-.1-2.97-.01-.77.02-1.58.09-2.44.47-.13,1.15-.2,2.03-.21l1.68.06c.23,1.32.4,3.23.5,5.7.14,3.22.32,5.46.52,6.72.83-.07,1.74-.12,2.74-.14,1.98-.03,3.57-.17,4.78-.39l-1.74-31.28h0ZM32.81,53.83l-1.73.03c-.91.05-2.14.04-3.68-.02-.56.04-1.05.04-1.46,0-.41-.04-.74-.05-.98-.05-.44,0-.86.04-1.24.11-.22,2.84-.3,5.72-.25,8.64.03,1.95.14,4.49.31,7.61l.09,2.57c.1,2.24.16,3.94.18,5.09.05,2.89,0,5.62-.12,8.2.91-.25,1.66-.38,2.25-.39l.8.03.53.04c.5.02,1.28.02,2.35,0,1.86-.03,3.01-.27,3.44-.72-.23-3.07-.37-6.15-.43-9.25-.05-2.68-.05-6.36-.02-11.03.03-3.51.01-7-.05-10.45v-.4h0ZM56.59,81.58l-.06-.84c-.04-.35-.03-.93.01-1.73v.04c.03-.21.03-.65.02-1.33-.59.07-1.27.11-2.03.12-1.09.02-2.26,0-3.5-.07l-2.35-.05c-1.42-.06-2.61-.09-3.59-.07l-.05-2.88c-.06-3.45-.12-6.07-.18-7.84-.12-3.54-.2-6.2-.23-7.97-.02-1.27-.02-2.97,0-5.09-.51-.2-1.17-.35-2-.45-.83-.1-1.66-.15-2.48-.13-.74.01-1.48.08-2.21.19-.74.12-1.31.25-1.72.41l.09,2.88c.02,1.3.05,2.2.09,2.7l.03,1.64.02,1.06c.12,3.54.19,6.04.22,7.48.09,4.93.07,9.83-.05,14.7l.02,1.02c2.01,0,4.71-.04,8.1-.1,3.57-.06,6.27-.14,8.1-.23l1.15-.07.71.03h.31c.5-.01.86-.05,1.06-.11.21-.06.36-.22.46-.47.1-.25.14-.69.13-1.31-.01-.68-.04-1.2-.07-1.55h0ZM78.32,81.2l-.06-.84c-.04-.35-.03-.93.01-1.73v.04c.03-.21.03-.65.02-1.33-.59.07-1.27.11-2.04.12-1.09.02-2.26,0-3.5-.07l-2.35-.05c-1.42-.06-2.61-.09-3.59-.07l-.05-2.88c-.06-3.45-.12-6.07-.18-7.84-.12-3.54-.2-6.2-.23-7.97-.02-1.27-.02-2.97,0-5.09-.51-.2-1.17-.35-2-.45-.83-.1-1.66-.15-2.48-.13-.74.01-1.48.08-2.21.19-.74.12-1.31.25-1.72.41l.09,2.88c.02,1.3.05,2.2.09,2.7l.03,1.64.02,1.06c.12,3.54.19,6.04.22,7.48.09,4.93.07,9.83-.05,14.7l.02,1.02c2.01,0,4.71-.04,8.1-.1,3.57-.06,6.27-.14,8.1-.23l1.15-.06.71.03h.31c.5-.01.86-.05,1.06-.11.21-.06.36-.22.46-.47.1-.25.14-.69.13-1.31-.01-.68-.04-1.2-.07-1.55h0ZM99.4,63.25h.53c.16-.96.24-1.73.23-2.32-.03-1.56-.45-2.92-1.27-4.05-.82-1.14-1.91-2.05-3.28-2.73-1.85-.79-3.87-1.17-6.09-1.13-1.71.03-3.14.29-4.28.78-1.85.8-3.34,2.06-4.47,3.78-1.14,1.72-1.69,3.54-1.65,5.45.02,1.18.31,2.36.86,3.53.55,1.17,1.37,2.27,2.45,3.28.96.78,2.07,1.28,3.35,1.49l.67.12c1.51.27,2.71.62,3.61,1.04.89.43,1.42,1.19,1.59,2.27.03.15.05.35.06.62.01.71-.18,1.26-.57,1.65-.39.39-.88.59-1.47.6-.68.01-1.28-.23-1.81-.72s-.81-1.18-.85-2.07c-1.45.03-2.45.03-3.01,0-.62-.02-1.37-.02-2.26,0-1.03.02-1.98.11-2.83.27v.4c-.08,1.86.45,3.49,1.6,4.89,1.15,1.4,2.63,2.46,4.46,3.18,1.83.72,3.7,1.06,5.62,1.03,1.89-.03,3.62-.52,5.2-1.46,1.58-.94,2.73-2.25,3.47-3.91.65-1.46.97-2.95.94-4.49-.02-.88-.19-1.79-.53-2.71-.34-.92-.8-1.77-1.37-2.52-.93-1.16-2.16-2.18-3.68-3.04-1.52-.86-3.02-1.38-4.5-1.56-.56-.08-1.05-.23-1.45-.46-.4-.23-.71-.65-.93-1.27v-.09s-.05-.4-.05-.4c0-.21.04-.44.12-.71.05-.56.24-.99.58-1.27.33-.29.72-.43,1.17-.44.62-.01,1.18.2,1.69.63.51.43.77.99.78,1.67,0,.12-.02.33-.08.62,1.1.31,2.37.45,3.82.42,1.21-.02,2.43-.15,3.67-.37h0ZM111.92,52.45l-1.73.03c-.91.05-2.14.04-3.68-.02-.56.04-1.05.04-1.46,0-.41-.04-.74-.05-.97-.05-.44,0-.86.04-1.24.11-.22,2.84-.3,5.72-.25,8.64.03,1.95.14,4.49.31,7.61l.09,2.57c.1,2.24.16,3.94.18,5.09.05,2.89,0,5.62-.12,8.2.91-.25,1.66-.38,2.25-.39l.8.03.53.04c.5.02,1.29.02,2.35,0,1.86-.03,3.01-.27,3.44-.72-.23-3.07-.37-6.15-.43-9.25-.05-2.68-.05-6.36-.01-11.03.03-3.51,0-7-.05-10.45v-.4h0ZM132.27,55.99l.27.35c-.61-.96-1.42-1.81-2.44-2.55-1.02-.74-2.07-1.24-3.17-1.52-.38.04-.97.06-1.77.08-.8.01-1.39,0-1.77-.01l-1.2.02-1.15-.02c-2.07.04-3.88.27-5.43.72l-.31.05.07,1.33c.08,1.42.13,2.48.14,3.19.05,2.81.07,4.78.06,5.93,0,1.27.01,3.19.06,5.76.1,5.87.45,10.74,1.05,14.6l3.45-.1,3.19-.1c1.59-.03,3.63-.09,6.11-.2,1.33-1.71,2.47-3.36,3.43-4.95.96-1.6,1.71-3.23,2.24-4.89.22-1.15.34-2.32.38-3.5.04-1.18.06-1.88.05-2.08l.03-.71c0-.44,0-1.11.05-1.99-.08-1.18-.24-2.14-.49-2.87v.04c-.48-2.21-1.43-4.39-2.86-6.55h0ZM128.45,68.32c.03,1.42-.32,2.69-1.04,3.83-.57.96-1.1,1.5-1.57,1.62-.21.09-.54.14-1.02.15h-.58c-.18.01-.49-.07-.93-.24.02-.68.01-1.67,0-2.97-.02-1.36-.03-2.38,0-3.06l.02-1.2-.02-1.15c-.02-.94-.06-1.95-.14-3.01.18-.06.56-.1,1.15-.11.35,0,.89.01,1.6.06h-.09c.68.23,1.19.73,1.53,1.5.34.78.64,1.78.89,3.02.13.5.2,1.02.2,1.55h0ZM158.67,79.04c0-.21-.05-.99-.13-2.34l-2.7.14c-1,.02-1.88.02-2.61,0-.74-.02-1.36-.04-1.86-.06-1.45-.06-2.94-.08-4.47-.05-.13-.8-.21-1.8-.23-3.01l.14-2.31c.06-.06.19-.09.4-.1l1.15.02c1.59-.03,2.86-.18,3.8-.46l.03-3.54c-.02-1.03-.11-1.99-.27-2.87l-.58-.03c-.83-.04-1.45-.06-1.86-.06l-2.92.41c-.19-.53-.29-1.15-.3-1.85-.02-.91.04-2.07.16-3.46l5.75-.14c2.18-.04,4.16-.26,5.92-.68,0-.53,0-1.27.05-2.21.04-1,.06-1.73.05-2.17-.01-.83-.09-1.55-.22-2.17-1.86-.12-3.78-.16-5.76-.12-2.3.04-5.64.19-10,.44l-3.89.2c-.15,3.49-.18,7.25-.11,11.29.03,1.95.13,4.74.28,8.37.23,6.4.34,10.08.33,11.02,2.63.13,5.26.17,7.88.13l5.8-.14c2.54-.1,4.45-.17,5.75-.19.3-1.19.44-2.53.42-4.04h0Z"/>
  <path class="cls-1" d="M18.72,112.8c-1.22-1.57-2.16-2.75-2.82-3.54-.66-.79-1.42-1.68-2.29-2.67l-1.61-1.88c1.34.04,2.38-.01,3.12-.15.74-.14,1.29-.36,1.65-.66.36-.3.69-.72,1-1.27.54-.88.81-1.79.83-2.72s-.2-1.83-.66-2.68c-.45-.85-1.09-1.55-1.91-2.09-.82-.54-1.73-.85-2.73-.92-.57-.08-1.21-.12-1.9-.14-.8-.01-1.54.01-2.23.08-.69.07-1.6.17-2.73.3.08.54.12,2.24.12,5.1,0,2.86-.02,5.7-.07,8.51-.05,3.06-.12,4.6-.18,4.61.12-.02.3-.01.55,0,.24.02.52.04.83.04.69.01,1.26-.05,1.7-.18-.1-1.46-.13-2.95-.1-4.46l.02-.89c0-.55.04-1.13.08-1.72l1.23,1.04c.63.62,1.22,1.27,1.78,1.96.55.69,1.3,1.65,2.26,2.88.39.55.76,1.03,1.1,1.45.35.02.91.03,1.69,0h1.3s-.03,0-.03,0h0ZM9.05,102.26h-.03c-.03-.24-.04-.59-.03-1.04l.06-1.77c.02-1.22-.02-2.13-.13-2.74,1.15-.19,2.13-.27,2.95-.26,1.18.02,2.14.31,2.87.86.73.55,1.08,1.34,1.07,2.36-.03,1.61-.65,2.52-1.87,2.7-.44.06-1.04.09-1.8.07-.75-.01-1.77-.07-3.07-.18h0ZM33.67,110.85v.05c.02.92-.04,1.64-.17,2.16-.83-.03-2.11-.04-3.83-.04-1.36.01-2.38.01-3.08,0-1.49-.03-2.75-.09-3.78-.2.03-1.96.04-3.91.02-5.84,0-2.57.03-4.48.05-5.73.04-2.5.13-4.58.27-6.25,3.22-.1,6.18-.13,8.89-.08,1.27.02,1.9.06,1.9.11.01.12.02.31.02.57,0,.35-.02.6-.04.76l-.04.78v.26c-1.26.07-2.36.09-3.32.07l-1.43-.02h-.83c-1.01-.03-1.87-.02-2.58.02l-.1.02c.03.43-.01,1.23-.12,2.37-.05.87-.08,1.42-.08,1.64,0,.54.02.94.08,1.2l.03.03c.83.03,1.72.06,2.66.07.8.01,1.45.04,1.95.09v.03c.03.26.04.63.03,1.1,0,.16-.01.33-.02.53-.01.2-.01.41,0,.64-.4.03-.72.05-.97.06-.24.01-.52.02-.83.01-.52,0-1.01,0-1.46,0-.78.02-1.22.06-1.31.11-.08.4-.12.96-.13,1.69,0,.49,0,.86,0,1.12,0,.23,0,.58,0,1.06,0,.48-.01.92-.04,1.32l.03.03c1.25,0,2.85.07,4.79.19,1.11.06,1.91.09,2.4.09h1.04ZM40.55,103.59c0-2.19.17-3.77.5-4.74.33-.97.84-1.46,1.54-1.48.16-.01.37-.02.65-.02.94.02,1.64.19,2.1.53.67.36,1.1.83,1.28,1.4.18.58.26,1.33.25,2.27v.83c.47.11.89.17,1.23.18.31,0,.73-.03,1.25-.11.11-.5.17-1,.18-1.48.02-1.18-.24-2.28-.79-3.29-.55-1.01-1.29-1.81-2.24-2.41-.95-.6-1.99-.91-3.14-.93-.71-.01-1.41.09-2.09.3-.94.24-1.7.78-2.26,1.62-.56.83-.85,1.79-.87,2.86l-.08,3.15c-.03.52-.05,1.24-.06,2.16-.03,1.98-.02,3.84.03,5.58.1,1.18.62,2.08,1.56,2.69.94.61,2.03.92,3.28.94.35,0,.69-.01,1.02-.06,1.04-.02,1.98-.29,2.82-.81.83-.52,1.49-1.23,1.95-2.12.47-.89.71-1.85.73-2.89,0-.57-.06-1.16-.2-1.75-.14-.04-.37-.06-.7-.07-.28,0-.49,0-.65.02-.12,0-.26,0-.43,0-.16,0-.34,0-.53-.02-.01,1.63-.31,2.88-.9,3.74-.59.86-1.48,1.28-2.68,1.26-.38,0-.81-.07-1.27-.18-.66-.27-1.09-.72-1.31-1.35-.22-.63-.31-1.51-.29-2.64,0-.35.03-.97.08-1.88l.05-1.33h0ZM55.72,96.03c1.05-.48,2.24-.72,3.56-.69,1.18.02,2.23.27,3.15.75.92.48,1.54,1.2,1.85,2.16.32.74.46,1.73.44,2.98,0,.56-.03.96-.05,1.22-.05.61-.08,1.5-.1,2.68,0,.3-.02.66-.03,1.11-.02.44-.05.96-.09,1.55l-.09.86c-.15,1.48-.5,2.64-1.05,3.5-.46.62-1.14,1.07-2.04,1.37-.9.3-1.85.44-2.84.42-.36,0-.63-.02-.81-.04-1.32-.13-2.31-.55-2.98-1.26-.67-.71-1-1.89-1.01-3.52l-.05-1.64c-.01-.35-.03-.95-.05-1.81-.02-.86-.02-1.65-.01-2.36.01-.8.05-1.59.12-2.37.04-1.04.21-2.02.52-2.94.31-.92.83-1.57,1.55-1.95h0ZM62.4,104.6v-2.08c-.04-1.18-.08-1.99-.13-2.41-.04-.43-.3-.94-.75-1.54-.46-.6-1.23-.91-2.3-.93-1.32-.02-2.26.54-2.81,1.7-.55,1.15-.85,2.92-.89,5.3-.03,1.46-.01,2.59.03,3.4.05.81.16,1.46.34,1.96.18.5.47.89.87,1.18.41.3,1.01.46,1.79.47,1.23.02,2.13-.21,2.7-.71.57-.49.88-1.23.95-2.2,0-.52.04-1.14.08-1.85.05-.71.08-1.17.1-1.38l.02-.91h0ZM81.53,113.9c-1.22-1.57-2.16-2.75-2.82-3.54-.66-.79-1.42-1.68-2.29-2.67l-1.61-1.88c1.34.04,2.38-.01,3.12-.15.74-.14,1.29-.36,1.65-.66.36-.3.69-.72,1-1.27.54-.88.81-1.78.83-2.72.02-.94-.2-1.83-.66-2.68-.46-.85-1.09-1.55-1.91-2.09-.82-.54-1.73-.85-2.73-.92-.57-.08-1.21-.12-1.9-.14-.8-.01-1.54.01-2.23.08-.69.07-1.6.17-2.73.3.08.54.12,2.24.12,5.1,0,2.86-.02,5.7-.07,8.51-.05,3.06-.12,4.59-.19,4.61.12-.01.3-.01.55.01.24.02.52.03.83.04.69.01,1.26-.05,1.7-.18-.1-1.46-.13-2.95-.1-4.46v-.89c.02-.56.05-1.13.1-1.72l1.23,1.04c.63.62,1.22,1.27,1.78,1.96.55.69,1.3,1.65,2.26,2.88.39.55.76,1.03,1.1,1.45.35.02.91.02,1.69,0h1.3s-.03,0-.03,0h0ZM71.86,103.35h-.03c-.03-.24-.04-.59-.03-1.04l.06-1.77c.02-1.22-.02-2.13-.13-2.74,1.15-.19,2.13-.27,2.95-.26,1.18.02,2.14.31,2.87.86.73.55,1.08,1.34,1.07,2.36-.03,1.62-.65,2.52-1.87,2.71-.43.06-1.04.09-1.8.07-.75-.01-1.77-.07-3.07-.18h0ZM92.16,95.89c.55.15,1.08.43,1.59.84.51.41.91.88,1.21,1.4.49.83.89,1.72,1.19,2.68.31.96.48,1.9.51,2.82l-.07,1.17c-.06,1.56-.19,2.8-.38,3.72,0,.05-.05.18-.15.39-.1.21-.19.42-.29.65-.27.6-.68,1.31-1.24,2.13-.55.82-1.14,1.6-1.76,2.36-1.53.03-3.82.01-6.86-.04l-.03.03c-.26-2.14-.36-4.93-.3-8.37.03-1.55.06-2.71.09-3.49l.09-3.52c.02-1.11.02-1.94.02-2.5l.08-.1c.77-.18,1.75-.26,2.95-.24.57.01,1,.03,1.28.05.69.03,1.38.04,2.06.04h0ZM89.56,110.75c.85,0,1.46-.04,1.84-.11.37-.07.66-.19.85-.36.19-.17.48-.5.85-.98.52-.65.92-1.75,1.21-3.29.04-.42.07-.73.07-.94,0-.21,0-.52-.03-.94-.07-.92-.25-1.74-.53-2.46-.28-.72-.62-1.29-1.01-1.71-.39-.42-.78-.67-1.16-.75-.45-.04-.75-.07-.88-.07-.47-.04-1.3-.02-2.5.06h-.13c.06.48.08,1.41.06,2.76-.02,1.11-.05,2.05-.1,2.81l-.04.91c0,.3,0,.97.02,2.01l.08,2.87c.14.11.61.17,1.43.18h0ZM102.15,95.88c.12-.02.27-.02.44-.02.14,0,.38.02.73.06.83.07,1.42.11,1.77.14v.1c-.02,1.13-.07,2.86-.14,5.19-.09,2.31-.16,4.65-.2,7.01-.04,2.21-.04,4.19,0,5.94-.14.1-.49.15-1.04.14l-1.43-.05c-.23,0-.44,0-.65.04.09-1.32.16-2.89.19-4.72.02-1.11.03-1.95.02-2.53v-6.78c.04-1.53.15-3.02.33-4.48v-.05h0ZM121.44,112.07l.08-2.89c.03-2,.05-3.48.05-4.46l.15-8.39c-.28-.06-.69-.11-1.25-.15-.45,0-.89.01-1.31.06l-.02,1.36v.86s-.01,1.41-.01,1.41c.02.83.03,2.22.03,4.15l.02,1.75c.04,1.58.05,2.72.02,3.41-.2-.58-.75-1.89-1.65-3.93s-1.77-3.84-2.59-5.4c-.35-.7-.65-1.31-.91-1.84-.25-.53-.48-1.04-.68-1.55,0-.07-.44-.14-1.33-.21l-.44-.03c-.14,0-.31.01-.52.04-.19,1.89-.31,4.22-.36,6.98l-.05,4.67c0,2.05-.01,3.63-.03,4.74l-.03,1.82c.19,0,.5.03.91.07.35.04.61.06.81.07.29.02.59,0,.89-.06-.01-.33,0-.92,0-1.77v-.68c.06-2.71.09-4.7.1-5.97.01-1.27.02-2.15.03-2.63v-.76c.03-.1.06-.14.09-.1.03.04.09.16.18.37.08.21.17.41.25.6.74,1.63,1.54,3.33,2.41,5.11.87,1.78,1.41,2.87,1.61,3.27.22.44.44.88.67,1.34.23.46.44.89.64,1.31l2.21.04v-.52c-.01-.63-.02-1.07-.02-1.33,0-.33.02-.58.04-.76h0ZM131.77,105.83s0-.02.01-.01c0,0,.03,0,.07-.04.28-.17.93-.24,1.93-.23.76.01,1.61.06,2.55.15l.86.07.08.03c.11,1.39.16,2.49.15,3.29-.02.99-.1,1.86-.25,2.6-.1.83-.36,1.49-.79,1.97-.43.48-1.01.84-1.74,1.09-1.27.36-2.42.53-3.42.51-.82-.01-1.52-.16-2.1-.43-.88-.4-1.52-.98-1.91-1.75-.4-.77-.65-1.84-.77-3.19-.09-.99-.15-1.79-.18-2.4-.03-.61-.04-1.29-.03-2.03.01-.64.03-1.15.05-1.54.06-1.55.17-2.75.31-3.61.15-.86.53-1.65,1.16-2.36.63-.72,1.62-1.16,2.98-1.33.4-.04.79-.07,1.17-.06,1.62.03,2.94.48,3.96,1.36,1.03.88,1.53,2.1,1.5,3.66,0,.17-.03.45-.07.83l-.03.16c-.07-.02-.33-.01-.78.01-.42.03-.76.04-1.02.03-.19,0-.39-.02-.6-.06-.04,0-.05-.04-.05-.13,0-.09,0-.26.02-.52.01-.26.02-.56.03-.91-.01-.28-.14-.57-.38-.88-.24-.31-.55-.57-.94-.78-.39-.22-.8-.34-1.23-.36l-.47-.04c-.82-.01-1.44.15-1.86.5-.42.35-.73.87-.91,1.56-.33,1.19-.52,2.86-.56,4.99-.02.92-.01,1.61.02,2.06.08,1.08.2,1.91.33,2.48.14.58.33,1.02.58,1.34.25.32.61.58,1.09.77.47.15.94.22,1.4.23.5,0,.98-.08,1.44-.26.07-.03.2-.09.39-.16.19-.07.38-.21.57-.39.19-.19.37-.55.55-1.09.06-.61.1-1.11.1-1.51.01-.56-.01-.97-.07-1.25-.06-.28-.1-.43-.13-.47-.07-.02-.42-.03-1.04-.04-.26-.02-.51-.03-.74-.03-.24,0-.39,0-.46,0-.38,0-.62-.03-.73-.06-.03-.23-.04-.51-.04-.84,0-.12,0-.43-.04-.91v-.03h0ZM153.04,102.87h-.03c-.52.08-1.01.11-1.46.1-.49,0-.88-.06-1.17-.15.04-.16.06-.38.06-.68,0-.57-.12-1.06-.39-1.45-.27-.4-.65-.69-1.13-.87-.35-.13-.73-.19-1.14-.2-.61-.01-1.19.11-1.75.37-.56.26-1,.62-1.32,1.08-.32.46-.46.98-.42,1.56.2,1.32,1.1,2.03,2.7,2.11,2,.1,3.49.59,4.49,1.46.99.87,1.48,1.96,1.45,3.28-.02,1.25-.28,2.32-.77,3.19-.49.88-1.15,1.53-1.98,1.96-.82.43-1.73.63-2.72.62-.99-.02-1.95-.21-2.88-.58-.93-.37-1.7-.91-2.32-1.62-.61-.7-.96-1.54-1.02-2.49v-.03c-.05-.21-.07-.44-.07-.71v-.18c.39-.03.68-.04.89-.04l.96.04c.19.02.46.03.81.04-.03.7.17,1.29.61,1.78.44.5,1.1.86,2,1.1.26.07.53.11.81.12.57,0,1.1-.12,1.57-.39.47-.27.84-.65,1.09-1.13.25-.48.36-1.02.31-1.61-.06-.66-.27-1.16-.64-1.5s-.8-.56-1.29-.67c-.49-.11-1.17-.21-2.04-.3l-.99-.09c-.88-.15-1.63-.51-2.25-1.07-.62-.56-1.03-1.2-1.24-1.94-.15-.52-.22-1.04-.21-1.54.01-.55.1-1.08.26-1.56.26-.81.67-1.54,1.25-2.18.58-.64,1.26-1.12,2.04-1.44.68-.27,1.48-.39,2.38-.38,1.23.02,2.37.28,3.4.76.72.38,1.29.9,1.71,1.58.41.68.61,1.48.6,2.4,0,.33-.06.74-.15,1.22h0Z"/>
  <path class="cls-2" d="M119.1,34.49h0s-.17-.39-.5-.92c-2.25-3.53-9.43-17.14-9.44-17.14,0,0-.1.01-.1.01-.11,0-.22,0-.33,0h0c-.08,0-.17-.01-.25-.02-.08,0-.17-.02-.26-.02-.13-.01-.27-.03-.4-.04-.13-.01-.26-.03-.39-.05-.1-.01-.21-.02-.32-.04-.17-.03-.34-.09-.52-.1h0s0,0,0,.01c0,.01-.02.03-.02.04-.01.02-.03.04-.04.07-.02.03-.04.06-.05.09-.02.04-.04.08-.07.11-.03.05-.05.09-.08.14-.03.05-.06.1-.09.16-.03.06-.07.12-.1.18-.04.07-.07.13-.11.19-.04.07-.08.14-.12.21-.04.07-.09.15-.13.23-.05.08-.09.16-.14.24-.05.08-.1.17-.15.25-.05.09-.1.18-.15.26-.05.09-.1.18-.16.27-.05.09-.11.19-.16.28-.06.1-.11.19-.17.29-.06.1-.11.2-.17.3-.06.1-.11.2-.17.3-.06.1-.12.2-.17.3-.06.1-.12.2-.17.3-.06.1-.12.2-.18.31-.06.1-.12.2-.17.3-.06.1-.12.2-.17.3-.06.1-.11.2-.17.3-.06.1-.11.2-.17.29-.05.1-.11.19-.16.29-.05.09-.11.19-.16.28-.05.09-.1.18-.15.27-.05.09-.1.18-.15.26-.05.08-.1.17-.14.25-.05.08-.09.16-.14.24-.04.07-.09.15-.13.22-.04.07-.08.14-.12.21-.04.06-.07.13-.11.19-.03.06-.07.11-.1.17-.03.05-.06.1-.09.15-.03.04-.05.09-.08.13-.02.04-.04.07-.06.11-.02.03-.03.06-.05.09h0c-.04.08-.08.2-.19.19h0c-.06,0-.11-.02-.14-.07-.04-.06-.05-.13-.09-.19h0s-.03-.07-.04-.07c-.03-.06-.06-.12-.09-.18h0c-.09-.19-.18-.37-.27-.56-.02-.05-.05-.11-.08-.16-.05-.1-.1-.21-.15-.31-.05-.11-.11-.23-.16-.34-.06-.12-.12-.25-.18-.37-.06-.13-.13-.26-.19-.39-.07-.14-.13-.28-.2-.42-.07-.15-.14-.29-.21-.44-.07-.15-.15-.31-.22-.46-.08-.16-.15-.32-.23-.47-.08-.16-.16-.33-.24-.49-.08-.17-.16-.33-.24-.5-.08-.17-.16-.34-.25-.51-.08-.17-.17-.34-.25-.52-.08-.17-.17-.35-.25-.52-.08-.18-.17-.35-.25-.52-.08-.17-.17-.35-.25-.53-.08-.17-.17-.35-.25-.52-.08-.17-.17-.35-.25-.52-.08-.17-.17-.34-.25-.52-.08-.17-.16-.34-.24-.5-.08-.17-.16-.33-.24-.5-.08-.16-.15-.32-.23-.48-.08-.16-.15-.31-.23-.47-.07-.15-.15-.3-.22-.45-.07-.14-.14-.29-.21-.43-.07-.14-.13-.27-.2-.41-.06-.13-.12-.26-.19-.39-.06-.12-.11-.24-.17-.36-.05-.11-.11-.22-.16-.33-.05-.1-.1-.2-.14-.3-.04-.09-.09-.18-.13-.27-.04-.08-.07-.15-.11-.23-.03-.06-.06-.13-.09-.19-.03-.05-.05-.1-.07-.15-.02-.04-.04-.07-.05-.11-.01-.02-.02-.05-.03-.07,0,0,0-.01,0-.02,0,0-.03,0-.04,0-.04,0-.07-.02-.1-.02h0c-.18-.03-.36-.05-.54-.06-.05,0-.1,0-.16,0-.06,0-.12,0-.18,0h0c-.1,0-.2.02-.3.04h0s-.04,0-.07.02c0,0-10.11,17.76-10.24,18.01h0c-.05.09-.11.17-.17.24h0c-.07-.15-.14-.31-.21-.46-.01-.02-.02-.05-.03-.07-.01-.02-.02-.05-.04-.07-.01-.03-.02-.05-.04-.08-.01-.03-.03-.06-.04-.08-.01-.03-.03-.06-.04-.09-.01-.03-.03-.06-.04-.09-.01-.03-.03-.06-.05-.1-.02-.03-.03-.07-.05-.1-.02-.04-.03-.07-.05-.11-.02-.04-.03-.07-.05-.11-.02-.04-.04-.08-.05-.11-.02-.04-.04-.08-.05-.12-.02-.04-.04-.08-.06-.12-.02-.04-.04-.08-.06-.13-.02-.04-.04-.09-.06-.13-.02-.04-.04-.09-.06-.13-.02-.05-.04-.09-.06-.14-.02-.05-.04-.09-.06-.14-.02-.05-.04-.1-.07-.15-.02-.05-.05-.1-.07-.15-.02-.05-.05-.1-.07-.15-.02-.05-.05-.1-.07-.15-.02-.05-.05-.11-.07-.16-.03-.05-.05-.11-.08-.16-.02-.05-.05-.11-.07-.17-.03-.06-.05-.11-.08-.17-.03-.06-.05-.11-.08-.17-.03-.06-.05-.12-.08-.17-.03-.06-.05-.12-.08-.18-.03-.06-.06-.12-.08-.18-.03-.06-.06-.12-.08-.18-.03-.06-.06-.12-.08-.18-.03-.06-.06-.12-.09-.19-.03-.06-.06-.13-.09-.19-.03-.06-.06-.13-.09-.19-.03-.06-.06-.13-.09-.19-.03-.07-.06-.13-.09-.2-.03-.07-.06-.13-.09-.2-.03-.07-.06-.14-.09-.2-.03-.07-.06-.14-.1-.2-.03-.07-.06-.14-.1-.21-.03-.07-.06-.14-.1-.21-.03-.07-.07-.14-.1-.21-.03-.07-.07-.14-.1-.21-.03-.07-.07-.14-.1-.22-.03-.07-.07-.14-.1-.22-.03-.07-.07-.15-.1-.22l-.1-.22c-.03-.07-.07-.15-.1-.22-.03-.07-.07-.15-.1-.22-.03-.08-.07-.15-.1-.22-.03-.08-.07-.15-.1-.23-.03-.08-.07-.15-.1-.23-.04-.08-.07-.15-.11-.23-.04-.08-.07-.15-.11-.23-.04-.08-.07-.15-.11-.23-.04-.08-.07-.15-.11-.23-.04-.08-.07-.16-.11-.23-.04-.08-.07-.16-.11-.24-.04-.08-.07-.16-.11-.24-.04-.08-.07-.16-.11-.24-.04-.08-.07-.16-.11-.24-.04-.08-.07-.16-.11-.24-.04-.08-.07-.16-.11-.24-.04-.08-.07-.16-.11-.24-.04-.08-.07-.16-.11-.24-.04-.08-.07-.16-.11-.24-.04-.08-.07-.16-.11-.24-.04-.08-.07-.16-.11-.24-.04-.08-.07-.16-.11-.24-.04-.08-.07-.16-.11-.24-.04-.08-.08-.16-.11-.24-.04-.08-.07-.16-.11-.24-.04-.08-.07-.16-.11-.24-.04-.08-.08-.16-.11-.24-.04-.08-.07-.16-.11-.24-.04-.08-.07-.16-.11-.24-.04-.08-.07-.16-.11-.24-.04-.08-.07-.16-.11-.24-.04-.08-.07-.16-.11-.24-.04-.08-.07-.16-.11-.24-.04-.08-.07-.16-.11-.24-.04-.08-.07-.16-.11-.24-.04-.08-.07-.16-.11-.24-.04-.08-.07-.16-.11-.24-.04-.08-.07-.16-.11-.24-.04-.08-.07-.16-.11-.24-.04-.08-.07-.16-.11-.23-.04-.08-.07-.16-.11-.24-.04-.08-.07-.16-.11-.23-.04-.08-.07-.15-.11-.23-.04-.08-.07-.15-.11-.23-.04-.08-.07-.15-.11-.23-.03-.08-.07-.15-.1-.23-.04-.08-.07-.15-.1-.23-.04-.08-.07-.15-.1-.23-.04-.08-.07-.15-.1-.23-.03-.07-.07-.15-.1-.22-.03-.07-.07-.15-.1-.22-.03-.07-.07-.15-.1-.22-.03-.07-.07-.15-.1-.22-.03-.07-.07-.14-.1-.22-.03-.07-.07-.14-.1-.22-.03-.07-.07-.14-.1-.21-.03-.07-.06-.14-.1-.21-.03-.07-.06-.14-.1-.21-.03-.07-.06-.14-.1-.21-.03-.07-.06-.14-.09-.2-.03-.07-.06-.14-.09-.2-.03-.07-.06-.13-.09-.2-.03-.07-.06-.13-.09-.2-.03-.07-.06-.13-.09-.2-.03-.06-.06-.13-.09-.19-.03-.06-.06-.13-.09-.19-.03-.06-.06-.13-.09-.19-.03-.06-.06-.12-.08-.18-.03-.06-.06-.12-.08-.18-.03-.06-.06-.12-.08-.18-.03-.06-.05-.12-.08-.18-.03-.06-.05-.12-.08-.17-.03-.06-.05-.11-.08-.17-.03-.06-.05-.11-.08-.17-.02-.05-.05-.11-.07-.16-.02-.05-.05-.11-.07-.16-.02-.05-.05-.1-.07-.16-.02-.05-.05-.1-.07-.15-.02-.05-.05-.1-.07-.15-.02-.05-.05-.1-.07-.15-.02-.05-.04-.1-.07-.14-.02-.05-.04-.09-.06-.14-.02-.05-.04-.09-.06-.14-.02-.04-.04-.09-.06-.13-.02-.04-.04-.09-.06-.13-.02-.04-.04-.08-.06-.13-.02-.04-.04-.08-.06-.12-.02-.04-.04-.08-.05-.12-.02-.04-.03-.08-.05-.11-.02-.04-.03-.07-.05-.11-.02-.04-.03-.07-.05-.1-.02-.03-.03-.07-.05-.1-.01-.03-.03-.06-.05-.1-.01-.03-.03-.06-.04-.09-.01-.03-.03-.06-.04-.09-.01-.03-.03-.06-.04-.08-.01-.03-.02-.05-.04-.08-.01-.02-.02-.05-.03-.07-.01-.02-.02-.05-.03-.07-.01-.02-.02-.04-.03-.06,0-.02-.02-.04-.03-.06,0-.02-.02-.04-.02-.05,0-.02-.02-.03-.02-.05,0-.01-.01-.03-.02-.04,0-.01-.01-.03-.02-.04,0-.01-.01-.02-.02-.03,0,0,0-.02-.01-.03,0,0,0-.02-.01-.02,0,0,0-.01,0-.02,0,0,0,0,0-.01,0,0,0,0,0,0,0,0,0,0,0,0h0s-.26,0-.3.01c-.21.01-.42,0-.63,0h0c-.18,0-.36.03-.54.06-.16.02-.33.06-.49.06h0s0,0,0,.01c0,.01-.01.02-.02.03-.01.02-.02.04-.03.06-.01.03-.03.05-.05.08-.02.03-.04.07-.06.1-.02.04-.05.08-.07.12-.03.05-.05.09-.08.14-.03.05-.06.11-.09.16-.03.06-.07.12-.1.18-.04.07-.08.13-.11.2-.04.07-.08.14-.12.22-.04.08-.09.16-.14.23-.05.08-.1.17-.14.25-.05.09-.1.18-.15.27-.05.09-.11.19-.16.28-.06.1-.11.2-.17.3-.06.1-.12.21-.18.31-.06.11-.13.22-.19.33-.07.11-.13.23-.2.34-.07.12-.14.23-.2.35-.07.12-.14.24-.21.37-.07.13-.15.25-.22.38-.07.13-.15.26-.22.39-.08.13-.15.26-.23.4-.08.14-.16.27-.24.41-.08.14-.16.28-.24.42-.08.14-.16.28-.25.43-.08.15-.17.29-.25.44-.08.15-.17.29-.25.44-.09.15-.17.3-.26.45-.09.15-.17.3-.26.46-.09.15-.18.31-.27.46-.09.16-.18.31-.27.47-.09.16-.18.32-.27.47-.09.16-.18.32-.28.48-.09.16-.18.32-.28.48-.09.16-.19.32-.28.48-.09.16-.19.32-.28.49-.09.16-.19.33-.28.49-.09.16-.19.33-.28.49l-.29.49c-.09.16-.19.33-.28.49-.09.16-.19.33-.28.49-.09.16-.19.33-.28.49-.09.16-.19.33-.28.49-.09.16-.19.33-.28.49-.09.16-.19.32-.28.49-.09.16-.19.32-.28.48-.09.16-.18.32-.28.48-.09.16-.18.32-.27.48-.09.16-.18.31-.27.47-.09.16-.18.31-.27.47-.09.15-.18.31-.26.46-.09.15-.18.3-.26.46-.09.15-.17.3-.26.45-.09.15-.17.29-.25.44-.08.14-.17.29-.25.43-.08.14-.16.28-.24.42-.08.14-.16.27-.24.41-.08.13-.15.27-.23.4-.08.13-.15.26-.23.39-.07.13-.15.26-.22.38-.07.12-.14.25-.21.37-.07.12-.14.24-.21.36-.07.12-.13.23-.2.35-.06.11-.13.22-.19.33-.06.11-.12.21-.18.32-.06.1-.12.2-.18.31-.06.1-.11.19-.17.29-.05.09-.11.18-.16.28-.05.09-.1.17-.15.26-.05.08-.09.16-.14.24-.04.07-.09.15-.13.22-.04.07-.08.14-.12.21-.04.06-.07.13-.11.19-.03.06-.07.12-.1.17-.03.05-.06.1-.09.15-.03.04-.05.09-.08.13-.02.04-.04.08-.06.11-.02.03-.04.06-.05.09-.01.02-.03.05-.04.07h0c-.05.08-.11.16-.19.21h0c-.07-.09-.11-.22-.16-.33-.02-.05-.05-.1-.07-.15-.03-.06-.06-.12-.09-.18-.03-.07-.07-.14-.1-.21-.04-.08-.08-.16-.12-.24-.04-.09-.09-.18-.13-.27-.05-.1-.09-.19-.14-.29-.05-.1-.1-.21-.15-.31-.05-.11-.11-.22-.16-.33-.06-.12-.11-.23-.17-.35-.06-.12-.12-.25-.18-.37-.06-.13-.12-.26-.18-.38-.06-.13-.13-.26-.19-.4-.07-.14-.13-.27-.2-.41-.07-.14-.13-.28-.2-.42-.07-.14-.14-.28-.2-.43-.07-.14-.14-.29-.21-.43-.07-.15-.14-.29-.21-.43-.07-.15-.14-.29-.21-.44-.07-.15-.14-.29-.21-.44-.07-.14-.14-.29-.21-.43-.07-.14-.14-.29-.21-.43-.07-.14-.14-.28-.21-.43-.07-.14-.13-.28-.2-.42-.07-.14-.13-.27-.2-.41-.07-.13-.13-.27-.19-.4-.06-.13-.12-.26-.19-.39-.06-.12-.12-.25-.18-.37-.06-.12-.11-.24-.17-.36-.05-.11-.11-.23-.16-.34-.05-.11-.1-.21-.15-.32-.05-.1-.1-.2-.14-.3-.04-.09-.09-.18-.13-.27-.04-.08-.08-.17-.12-.25-.03-.07-.07-.15-.11-.22-.03-.06-.06-.13-.09-.19-.03-.05-.05-.11-.08-.16-.02-.04-.04-.08-.06-.13-.01-.03-.03-.06-.04-.09,0-.02-.02-.04-.03-.06,0,0,0-.01,0-.02,0,0-.08-.01-.09-.01-.07,0-.14-.02-.2-.02-.16-.01-.31,0-.47,0-.2.01-.4.03-.6.05h0c-.23.02-.47.04-.7.06-.08,0-.17.02-.25.03h0c-.09.02-.19.04-.28.07h0l-6.42,11.87-.38.61s.19.31.26.45h0c.15.3.29.6.43.9.14.3.28.59.42.89.15.31.29.61.44.92.12.26.24.51.36.77.14.31.29.58.42.89.06.14.15.29.15.29.01.02.14.01.16.01.07,0,.11.01.16-.05.1-.14.15-.32.22-.48.08-.17.17-.33.26-.5h0c.24-.44.49-.88.74-1.32.07-.13.14-.25.21-.38.03-.1.12-.2.17-.29.05-.1.11-.19.16-.29h0c.1-.18.2-.36.3-.53.1-.18.21-.37.31-.55.11-.19.21-.37.32-.56.11-.19.21-.37.32-.56.1-.18.21-.37.31-.55.1-.18.2-.35.3-.53.1-.17.19-.34.29-.51.09-.16.18-.31.27-.47.08-.14.16-.29.24-.43.07-.13.14-.25.22-.38.06-.11.12-.21.18-.32.05-.08.1-.17.14-.25.03-.06.07-.12.1-.18.02-.03.04-.1.08-.09.01,0,.03,0,.05.02.01.01.02.03.03.05h0s.01.03.02.04c0,.02.02.03.02.05,0,.02.02.04.03.06.01.02.02.05.03.07.01.03.02.05.04.08.01.03.03.06.04.09.01.03.03.07.05.1.02.04.03.07.05.11.02.04.04.08.06.12.02.04.04.08.06.12.02.04.04.09.06.13.02.05.04.09.07.14.02.05.05.1.07.15.03.05.05.1.07.15.02.05.05.11.08.16.03.06.05.11.08.17.03.06.05.11.08.17.03.06.06.12.09.18.03.06.06.12.09.19.03.06.06.13.09.19.03.07.06.13.09.2.03.07.06.13.09.2.03.07.07.14.1.21.03.07.07.14.1.21.03.07.07.14.1.21.03.07.07.15.1.22.04.07.07.15.11.22.04.07.07.15.11.22.04.08.07.15.11.23.04.08.07.15.11.23.04.08.07.15.11.23.04.08.07.16.11.23.04.08.07.16.11.24.04.08.08.16.11.24.04.08.08.16.12.24.04.08.08.16.11.24.04.08.08.16.11.24.04.08.08.16.12.24.04.08.08.16.12.24.04.08.08.16.11.24.04.08.08.16.11.24.04.08.08.16.11.24.04.08.08.16.11.24.04.08.08.16.11.24.04.08.08.16.11.24.04.08.07.16.11.23.04.08.07.16.11.23.04.08.07.15.11.23.04.08.07.15.11.23.04.07.07.15.11.22.04.07.07.15.11.22.04.07.07.15.1.22.03.07.07.14.1.21.03.07.07.14.1.21.03.07.07.14.1.2.03.07.06.13.1.2.03.07.06.13.09.2.03.06.06.13.09.19.03.06.06.12.09.18.03.06.06.12.08.18.03.06.06.12.08.17.03.06.05.11.08.17.02.05.05.11.08.16.02.05.05.1.07.15.02.05.05.1.07.15.02.05.04.09.07.14.02.04.04.09.06.13.02.04.04.08.06.12.02.04.04.08.06.11.02.04.03.07.05.11.02.03.03.06.05.1.01.03.03.06.04.09.01.03.03.05.04.08.01.02.02.05.03.07,0,.02.02.04.03.06,0,.02.02.03.02.05,0,.01.01.03.02.04,0,0,0,.02.01.03,0,0,0,.01,0,.02,0,0,0,0,0,0h0l1.59.11h0s0,0,0,0c0,0,0,0,0,0,0,0,0-.01,0-.01,0,0,0-.01.01-.02,0,0,.01-.02.02-.03,0-.01.01-.02.02-.03,0-.01.01-.03.02-.04,0-.01.02-.03.02-.04,0-.02.02-.03.03-.05,0-.02.02-.04.03-.05.01-.02.02-.04.03-.06.01-.02.02-.04.04-.06.01-.02.03-.05.04-.07.01-.02.03-.05.04-.07.01-.03.03-.05.05-.08.02-.03.03-.06.05-.08.02-.03.03-.06.05-.09.02-.03.04-.06.05-.09.02-.03.04-.07.06-.1.02-.03.04-.07.06-.1.02-.04.04-.07.06-.11.02-.04.04-.07.06-.11.02-.04.04-.08.07-.12.02-.04.05-.08.07-.12.02-.04.05-.08.07-.12.03-.04.05-.09.07-.13.03-.04.05-.09.08-.13.03-.05.05-.09.08-.14.03-.05.05-.09.08-.14.03-.05.06-.1.08-.15.03-.05.06-.1.09-.15.03-.05.06-.1.09-.15l.09-.16c.03-.05.06-.11.09-.16.03-.05.06-.11.09-.16.03-.06.06-.11.1-.17.03-.06.06-.11.1-.17.03-.06.07-.11.1-.17.03-.06.07-.12.1-.18.04-.06.07-.12.1-.18.04-.06.07-.12.11-.18.04-.06.07-.12.11-.19.04-.06.07-.13.11-.19.04-.06.07-.13.11-.19.04-.06.07-.13.11-.2.04-.07.08-.13.11-.2.04-.07.08-.13.12-.2.04-.07.08-.13.12-.2.04-.07.08-.14.12-.21.04-.07.08-.14.12-.21.04-.07.08-.14.12-.21.04-.07.08-.14.12-.21.04-.07.08-.14.12-.21.04-.07.08-.15.13-.22.04-.07.08-.15.13-.22.04-.07.09-.15.13-.22.04-.07.09-.15.13-.22.04-.08.09-.15.13-.23.04-.08.09-.15.13-.23.04-.08.09-.15.13-.23.04-.08.09-.15.13-.23.04-.08.09-.15.13-.23.04-.08.09-.16.14-.23.04-.08.09-.16.14-.24.05-.08.09-.16.14-.24.05-.08.09-.16.14-.24.05-.08.09-.16.14-.24.05-.08.09-.16.14-.24.05-.08.09-.16.14-.24.05-.08.09-.16.14-.24.05-.08.09-.16.14-.24.05-.08.09-.16.14-.24.05-.08.09-.16.14-.24.05-.08.09-.16.14-.25.05-.08.1-.17.14-.25.05-.08.09-.16.14-.25.05-.08.1-.17.14-.25.05-.08.09-.17.14-.25.05-.08.1-.17.14-.25.05-.08.1-.17.14-.25.05-.08.1-.17.14-.25.05-.08.1-.17.14-.25.05-.08.1-.17.14-.25.05-.08.1-.17.14-.25.05-.08.1-.17.14-.25.05-.08.1-.17.14-.25.05-.08.1-.17.14-.25.05-.08.1-.17.14-.25.05-.08.1-.17.14-.25.05-.08.1-.17.14-.25.05-.08.1-.16.14-.25.05-.08.1-.16.14-.25.05-.08.09-.16.14-.25.05-.08.1-.16.14-.25.05-.08.09-.16.14-.25.05-.08.09-.16.14-.24.05-.08.09-.16.14-.24s.09-.16.14-.24c.05-.08.09-.16.14-.24.05-.08.09-.16.14-.24.05-.08.09-.16.14-.24.05-.08.09-.16.14-.24.04-.08.09-.16.14-.24.05-.08.09-.16.14-.24.04-.08.09-.16.13-.23.04-.08.09-.15.13-.23.04-.08.09-.15.13-.23.04-.08.09-.15.13-.23.04-.08.09-.15.13-.23.04-.07.09-.15.13-.22.04-.08.09-.15.13-.22.04-.07.09-.15.13-.22.04-.07.08-.15.13-.22.04-.07.08-.14.13-.22.04-.07.08-.14.12-.22.04-.07.08-.14.12-.21.04-.07.08-.14.12-.21.04-.07.08-.14.12-.21.04-.07.08-.14.12-.21.04-.07.08-.14.12-.2.04-.07.08-.13.12-.2.04-.07.08-.13.11-.2.04-.07.07-.13.11-.2.04-.06.07-.13.11-.19.04-.06.07-.13.11-.19.04-.06.07-.12.11-.19.04-.06.07-.12.11-.18.04-.06.07-.12.1-.18.03-.06.07-.12.1-.18.03-.06.07-.12.1-.17.03-.06.07-.11.1-.17.03-.06.07-.11.1-.17.03-.05.06-.11.09-.16.03-.05.06-.11.09-.16.03-.05.06-.1.09-.16.03-.05.06-.1.09-.15.03-.05.06-.1.09-.15.03-.05.06-.1.08-.15.03-.05.05-.09.08-.14.03-.05.05-.09.08-.14.03-.04.05-.09.08-.13.02-.04.05-.09.07-.13.02-.04.05-.08.07-.13.02-.04.05-.08.07-.12.02-.04.04-.08.07-.12.02-.04.04-.07.06-.11.02-.04.04-.07.06-.11.02-.03.04-.07.06-.1.02-.03.04-.07.06-.1.02-.03.04-.06.05-.09.02-.03.03-.06.05-.09.02-.03.03-.06.05-.08.01-.03.03-.05.05-.08.01-.02.03-.05.04-.07.01-.02.03-.05.04-.07.01-.02.02-.04.04-.06.01-.02.02-.04.03-.06.01-.02.02-.04.03-.05,0-.02.02-.03.03-.05,0-.01.02-.03.03-.04,0-.01.01-.03.02-.04,0-.01.01-.02.02-.03,0,0,0-.02.01-.03h0s.05-.06.08-.08c.01-.01.07-.06.09-.06l13.21,28.71,1.09.04h0s0,0,0,0c0,0,0-.02.01-.02,0-.01.01-.03.02-.04.01-.02.02-.04.03-.05.01-.02.03-.05.04-.07.02-.03.03-.06.05-.08.02-.03.04-.06.06-.1.02-.04.04-.07.06-.11.02-.04.05-.08.07-.12.03-.04.05-.09.08-.14.03-.05.06-.1.09-.15.03-.05.06-.11.09-.16.03-.06.07-.12.1-.17.03-.06.07-.12.11-.19.04-.06.07-.13.11-.19.04-.07.08-.14.12-.21.04-.07.08-.14.12-.21.04-.08.09-.15.13-.23.04-.08.09-.15.13-.23.05-.08.09-.16.14-.24.05-.08.1-.17.14-.25.05-.09.1-.17.15-.26.05-.09.1-.18.15-.27.05-.09.1-.18.16-.27.05-.09.11-.19.16-.28.05-.1.11-.19.16-.29.06-.1.11-.2.17-.3.06-.1.11-.2.17-.3.06-.1.12-.2.18-.3.06-.1.12-.21.18-.31.06-.1.12-.21.18-.31.06-.11.12-.21.18-.32.06-.11.12-.21.18-.32.06-.11.12-.22.18-.32.06-.11.13-.22.19-.33.06-.11.12-.22.19-.33.06-.11.13-.22.19-.33.06-.11.13-.22.19-.33.06-.11.13-.22.19-.33.07-.11.13-.23.19-.34.06-.11.13-.22.19-.34.06-.11.13-.23.19-.34.06-.11.13-.22.19-.34.06-.11.13-.22.19-.34.06-.11.13-.22.19-.33.06-.11.13-.22.19-.33.06-.11.13-.22.19-.33s.12-.22.19-.33c.06-.11.12-.22.19-.32.06-.11.12-.22.18-.32.06-.11.12-.21.18-.32.06-.11.12-.21.18-.32.06-.1.12-.21.18-.31.06-.1.12-.2.18-.31.06-.1.12-.2.17-.3.06-.1.11-.2.17-.3.06-.1.11-.19.17-.29.05-.1.11-.19.16-.28.05-.09.11-.19.16-.28.05-.09.1-.18.15-.27.05-.09.1-.18.15-.26.05-.09.1-.17.14-.26.05-.08.09-.16.14-.25.04-.08.09-.16.14-.24.04-.08.09-.15.13-.23.04-.07.08-.15.13-.22.04-.07.08-.14.12-.21.04-.07.08-.13.11-.2.04-.06.07-.13.11-.19.03-.06.07-.12.1-.18.03-.05.06-.11.09-.17.03-.05.06-.1.09-.16.03-.05.05-.09.08-.14.02-.04.05-.09.07-.13.02-.04.04-.08.07-.12.02-.04.04-.07.06-.1.02-.03.03-.06.05-.09.01-.02.03-.05.04-.08.01-.02.02-.04.03-.06,0-.02.02-.03.03-.05,0-.01.01-.02.02-.03,0,0,0,0,0-.01-.02.01.14-.04.16,0,0,0,0,0,0,.01,0,.01.01.02.02.04,0,.02.02.03.02.05,0,.02.02.04.03.06.01.02.02.05.04.07.01.03.03.06.04.08.01.03.03.06.05.1.02.04.03.07.05.11.02.04.04.08.06.12.02.04.04.08.06.12.02.04.04.09.06.14.02.05.05.1.07.14.03.05.05.1.07.15.03.05.05.11.08.16.03.06.05.11.08.17.03.06.06.12.09.18.03.06.06.12.09.19.03.06.06.13.09.19.03.07.06.13.1.2.03.07.07.14.1.21.03.07.07.14.1.21.04.07.07.15.11.22.04.07.07.15.11.23.04.08.07.16.11.23.04.08.08.16.11.24.04.08.08.16.12.24.04.08.08.16.12.25.04.08.08.17.12.25.04.09.08.17.12.26.04.09.08.17.12.26.04.09.08.17.13.26.04.09.09.18.13.26.04.09.09.18.13.27.04.09.09.18.13.27.04.09.09.18.13.27.04.09.09.18.13.27.04.09.09.18.13.27.04.09.09.18.13.28.04.09.09.18.13.28.05.09.09.18.13.28.04.09.09.18.13.28.04.09.09.18.13.28.04.09.09.18.13.28.04.09.09.18.13.27.04.09.09.18.13.27.04.09.09.18.13.27.04.09.09.18.13.27.04.09.09.18.13.27.04.09.09.18.13.27.04.09.08.18.13.26.04.09.08.17.12.26l.12.26c.04.08.08.17.12.25.04.08.08.17.12.25.04.08.08.16.12.24.04.08.08.16.12.24.04.08.08.16.11.23.04.08.07.15.11.23.04.07.07.15.11.22.04.07.07.14.1.22.03.07.07.14.1.21.03.07.07.14.1.2.03.07.06.13.1.2.03.06.06.13.09.19.03.06.06.12.09.18.03.06.06.12.08.18.03.06.05.11.08.17.03.05.05.1.08.16.02.05.05.1.07.15.02.05.04.09.07.14.02.04.04.09.06.13.02.04.04.08.06.12.02.04.04.07.05.11.02.03.03.07.05.1.01.03.03.06.04.09.01.03.02.05.04.08,0,.02.02.04.03.07,0,.02.02.04.03.05,0,.01.01.03.02.04,0,.01,0,.02.01.03,0,0,0,.01,0,.02,0,0,0,0,0,0h0l1.05.07s6.05-10.36,6.07-10.42h0s.04-.07.07-.1c.03-.03.05-.03.08,0h0s.08.07.12.11c.03.04.05.09.08.13.01.02.02.04.04.06.01.02.03.05.04.07.01.03.03.05.05.08.02.03.03.06.05.09.02.03.04.07.06.1.02.04.04.07.06.11.02.04.04.08.07.12.02.04.05.09.07.13.02.04.05.09.08.14.03.05.05.1.08.14.03.05.06.1.08.15.03.05.06.11.09.16.03.06.06.11.09.17.03.06.06.12.1.17.03.06.07.12.1.18.03.06.07.12.1.19.04.06.07.13.11.19.04.07.07.13.11.2.04.07.07.14.11.2.04.07.08.14.11.21.04.07.08.14.12.21.04.07.08.15.12.22.04.07.08.15.12.22.04.08.08.15.12.23.04.08.08.15.13.23.04.08.08.15.13.23.04.08.09.16.13.24.04.08.09.16.13.24.04.08.09.16.13.24.04.08.09.16.13.24.04.08.09.16.14.25.04.08.09.17.13.25.04.08.09.17.14.25.05.08.09.17.14.25.05.08.09.17.14.25.05.09.09.17.14.25.05.09.09.17.14.25.05.08.09.17.14.25.05.08.09.17.14.26.05.08.09.17.14.25.05.08.09.17.14.25.04.08.09.17.14.25.05.08.09.17.14.25.04.08.09.16.14.25.04.08.09.17.13.25.04.08.09.16.13.25.04.08.09.16.13.24.04.08.09.16.13.24.04.08.09.16.13.24.04.08.08.15.13.23.04.08.08.15.12.23.04.08.08.15.12.23.04.07.08.15.12.22.04.07.08.14.12.22.04.07.08.14.12.21.04.07.08.14.11.21.04.07.07.14.11.2.04.07.07.13.11.2.04.06.07.13.1.19.03.06.07.12.1.19.03.06.06.12.1.18.03.06.06.11.09.17.03.06.06.11.09.17.03.05.06.11.09.16.03.05.05.1.08.15.03.05.05.1.08.14.02.04.05.09.07.14.02.04.05.08.07.13.02.04.04.08.06.12.02.04.04.07.06.11.02.03.04.07.05.1.02.03.03.06.05.09.01.03.03.05.04.08.01.02.03.05.04.07.01.02.02.04.03.06,0,.02.02.03.03.05,0,.01.01.03.02.04,0,0,.01.02.02.03,0,0,0,.01,0,.02,0,0,0,0,0,0,0,0,.04.03.19.01.19-.02.69.05.69.05h0s.07-.06.09-.09h0c.04-.07.07-.14.11-.21.04-.08.07-.15.1-.23.05-.1.09-.19.14-.29h0c.03-.07.06-.13.09-.2.02-.04.04-.08.05-.11,0,0,0,0,0,0h0c.05-.08.09-.17.14-.25h0c.2-.35.4-.69.61-1.04.06-.1.12-.19.18-.29h0c.12-.21.27-.42.4-.63.12-.18.22-.38.34-.56.03-.06.07-.11.1-.16h0c.04-.05.08-.1.12-.16.01-.01.02-.03.04-.04h0Z"/>
</svg>